<svg xmlns="http://www.w3.org/2000/svg" version="1.1" xmlns:xlink="http://www.w3.org/1999/xlink" xmlns:svgjs="http://svgjs.dev/svgjs" width="1440" height="560" preserveAspectRatio="none" viewBox="20 20 1400 530"><g mask="url(&quot;#SvgjsMask1010&quot;)" fill="none"><path d="M140 137.25C138.8 137.25 138.58 138.4 138.03 140C113.95 209.78 90.04 217.55 90.74 280C91.03 306.02 115.49 298.31 140 316.94C207.58 368.31 274.91 367.04 274.91 420C274.91 474.78 208.95 478.26 140 532.42C119.83 548.26 120.96 555.22 96.67 560C50.96 569.01 19.74 588.59 0 560C-28.59 518.59 0 490 0 420C0 350 0 350 0 280C0 210 0 210 0 140C0 70 -35 35 0 0C35 -35 70 0 140 0C210 0 210 0 280 0C350 0 350 0 420 0C467.6 0 474.32 -14.87 515.2 0C544.32 10.59 532.14 50.91 560 50.91C610.54 50.91 614.98 20.74 672 0C684.98 -4.72 686 0 700 0C770 0 770 0 840 0C910 0 910 0 980 0C1050 0 1050 0 1120 0C1190 0 1190 0 1260 0C1330 0 1330 0 1400 0C1449.74 0 1460.86 -19.3 1499.47 0C1530.86 15.7 1529.14 32.47 1540 70C1549.4 102.47 1540 105 1540 140C1540 210 1540 210 1540 280C1540 350 1540 350 1540 420C1540 490 1571.23 521.23 1540 560C1514.84 591.23 1446.78 590.97 1427.22 560C1402.57 520.97 1457.68 488.47 1451.58 420C1445.2 348.47 1397.04 348.06 1402.26 280C1407.77 208.06 1473.77 199.42 1473.04 140C1472.64 107.88 1440.16 106.1 1400 96.92C1333.64 81.75 1321.94 76.4 1260 91.3C1232.4 97.94 1220.93 114.36 1220.93 140C1220.93 171.02 1231.43 181.67 1260 204.62C1318.55 251.67 1369.86 224.37 1395.17 280C1418.86 332.06 1392.29 358.89 1358 420C1324.71 479.33 1313.44 520.88 1260 520.88C1194.44 520.88 1157.3 486.48 1120 420C1089.72 366.04 1124.83 348.51 1124.83 280C1124.83 277.4 1122.23 277.78 1120 277.78C1118.66 277.78 1117.7 278.41 1117.7 280C1117.7 349.52 1153.19 372.97 1120 420C1084.34 470.54 1035.09 431.91 980 475.15C945.91 501.91 975.11 539.72 941.64 560C905.11 582.14 890.82 560 840 560C770 560 770 560 700 560C630 560 630 560 560 560C506.15 560 501.73 570.98 452.31 560C431.73 555.43 436.88 543.65 420 528.89C356.81 473.65 292.17 473.87 292.17 420C292.17 366.93 355.5 366.75 420 315C442.75 296.75 457.02 305.56 466.67 280C490.04 218.06 500.37 201.21 486.04 140C477.04 101.55 451.86 80.68 420 80.68C390.61 80.68 392.2 110.76 363.55 140C322.2 182.19 326.72 223.55 280 223.55C216.78 223.55 211.72 181.94 143.68 140C141.72 138.79 141.63 137.25 140 137.25" stroke="#8D6E63" stroke-width="18"></path><path d="M840 136.82C836.15 136.82 831.25 138.48 831.25 140C831.25 141.5 836.08 142.86 840 142.86C841.52 142.86 842.12 141.46 842.12 140C842.12 138.44 841.58 136.82 840 136.82" stroke="#8D6E63" stroke-width="18"></path><path d="M700 212.41C671.25 212.41 630 252.49 630 280C630 301.6 667.76 310.63 700 310.63C718.57 310.63 731.61 298.22 731.61 280C731.61 249.11 722.05 212.41 700 212.41" stroke="#8D6E63" stroke-width="18"></path><path d="M560 330.26C526.99 330.26 483.91 376.48 483.91 420C483.91 460.24 526.53 497.78 560 497.78C587.91 497.78 606.67 459.6 606.67 420C606.67 375.84 588.37 330.26 560 330.26" stroke="#8D6E63" stroke-width="18"></path><path d="M0 44.55C14.36 13.09 28.5 11.27 63.91 0C98.5 -11.01 101.95 0 140 0C177.24 0 214.47 -14.54 214.47 0C214.47 19.77 173.66 31.15 140 68.63C110.79 101.15 109.5 101.51 88.73 140C52.46 207.2 12.64 221.54 25.93 280C38.28 334.32 83.11 322.59 140 365.56C175.78 392.59 211.27 392.02 211.27 420C211.27 448.94 177.8 452.66 140 479.39C78.83 522.66 77.62 522.98 13.33 560C7.62 563.29 0.58 566.09 0 560C-6.09 496.09 0 490 0 420C0 350 0 350 0 280C0 210 0 210 0 140C0 92.28 -17.59 83.09 0 44.55" stroke="#8D6E63" stroke-width="18"></path><path d="M235.79 140C235.79 118.53 260.73 90.59 280 90.59C296.38 90.59 307.1 117.23 307.1 140C307.1 155.49 295.15 167.1 280 167.1C259.5 167.1 235.79 156.79 235.79 140" stroke="#8D6E63" stroke-width="18"></path><path d="M420 21.36C400.85 21.36 379.35 5.67 379.35 0C379.35 -5.01 399.67 0 420 0C432.6 0 445.2 -4.62 445.2 0C445.2 6.06 433.78 21.36 420 21.36" stroke="#8D6E63" stroke-width="18"></path><path d="M552.08 140C552.08 134.35 554.59 130.45 560 130.45C574.7 130.45 592.31 131.43 592.31 140C592.31 151.21 571.81 170 560 170C551.69 170 552.08 154.13 552.08 140" stroke="#8D6E63" stroke-width="18"></path><path d="M840 57.27C812.17 24.73 775.38 16.38 775.38 0C775.38 -12.26 807.69 0 840 0C910 0 910 0 980 0C1011.32 0 1014.37 -10.23 1042.63 0C1084.37 15.11 1088.22 18.35 1120 50.69C1157.02 88.35 1180.23 95.93 1180.23 140C1180.23 181.7 1153.03 183.65 1120 222.22C1093.08 253.65 1087.41 248.65 1060.33 280C1017.41 329.67 1032.77 352.13 980 384.26C922.6 419.21 908.87 397.24 840 414.17C836.18 415.11 834.62 417.21 834.62 420C834.62 422.54 838.6 421.52 840 424.83C868.14 491.52 893.7 510.64 893.7 560C893.7 578.22 866.85 560 840 560C770 560 770 560 700 560C644 560 597.81 589.42 588 560C574.47 519.42 615.11 486.43 653.33 420C671.11 389.09 675.1 391.18 700 365.31C742.46 321.18 746.47 324.86 788.06 280C816.47 249.35 814.56 247.55 840 214.29C868.1 177.55 895.15 177.84 895.15 140C895.15 99.33 872.05 94.73 840 57.27" stroke="#8D6E63" stroke-width="18"></path><path d="M1260 40.58C1222.38 31.18 1191.71 10.91 1191.71 0C1191.71 -9.38 1225.86 0 1260 0C1330 0 1330 0 1400 0C1426.71 0 1453.42 -10.86 1453.42 0C1453.42 15.16 1433.54 45.01 1400 52.05C1336.83 65.3 1326.52 57.2 1260 40.58" stroke="#8D6E63" stroke-width="18"></path><path d="M1245.52 280C1248.93 272.63 1252.76 271.92 1260 271.92C1267.24 271.92 1272 272.35 1274.48 280C1296 346.39 1312.9 355.95 1308 420C1305.66 450.65 1286.17 469.41 1260 469.41C1227.89 469.41 1194.04 454.12 1191.43 420C1186.8 359.41 1214.65 346.67 1245.52 280" stroke="#8D6E63" stroke-width="18"></path><path d="M1458.71 280C1465.52 212.13 1517.99 150.77 1540 150.77C1558.63 150.77 1540 215.38 1540 280C1540 350 1540 350 1540 420C1540 490 1562 512 1540 560C1529.92 582 1479.98 581.49 1475.83 560C1466.47 511.49 1517.18 488.74 1512.98 420C1508.62 348.74 1452.01 346.75 1458.71 280" stroke="#8D6E63" stroke-width="18"></path><path d="M0 97.58C11.38 97.58 39.44 115.9 39.44 140C39.44 177.11 10.4 220 0 220C-9.32 220 0 180 0 140C0 118.79 -8.34 97.58 0 97.58" stroke="#8D6E63" stroke-width="18"></path><path d="M948.18 140C969.84 97.06 946.77 54.3 980 48.7C1032.68 39.82 1055.04 73.86 1120 111.03C1134.81 119.51 1139.53 125.7 1139.53 140C1139.53 153.52 1131.52 154.86 1120 166.67C1063.23 224.86 1059.82 221.86 1002.95 280C989.82 293.42 996.61 309.79 980 309.79C926.8 309.79 870.07 315.98 863.33 280C854.16 231.08 911.51 212.71 948.18 140" stroke="#8D6E63" stroke-width="18"></path><path d="M1400 7.18C1370.11 7.18 1337.78 1.8 1337.78 0C1337.78 -1.79 1368.89 0 1400 0C1403.68 0 1407.37 -1.5 1407.37 0C1407.37 2.09 1404.91 7.18 1400 7.18" stroke="#8D6E63" stroke-width="18"></path><path d="M1515.16 280C1515.16 259.15 1533.27 240.51 1540 240.51C1545.69 240.51 1540 260.25 1540 280C1540 310.8 1545.98 341.6 1540 341.6C1533.56 341.6 1515.16 309.69 1515.16 280" stroke="#8D6E63" stroke-width="18"></path><path d="M117.89 420C117.89 416.96 129.53 414.17 140 414.17C144.4 414.17 147.64 417 147.64 420C147.64 423.1 144.49 426.36 140 426.36C129.61 426.36 117.89 423.06 117.89 420" stroke="#8D6E63" stroke-width="18"></path><path d="M787.5 560C787.5 556.31 817.35 545.52 840 545.52C846.48 545.52 845.75 554.71 845.75 560C845.75 561.95 842.88 560 840 560C813.75 560 787.5 563.55 787.5 560" stroke="#8D6E63" stroke-width="18"></path><path d="M1524.44 560C1524.44 540.3 1536.02 509.09 1540 509.09C1543.8 509.09 1545.96 540.5 1540 560C1538.18 565.96 1524.44 565.76 1524.44 560" stroke="#8D6E63" stroke-width="18"></path></g><defs><mask id="SvgjsMask1010"><rect width="1440" height="560" fill="#ffffff"></rect></mask></defs></svg>